<svg width="453" height="40" viewBox="0 0 453 40" fill="none" xmlns="http://www.w3.org/2000/svg">
<path d="M13.4333 14.9L10 13.3333L13.4333 11.7667L15 8.33334L16.5667 11.7667L20 13.3333L16.5667 14.9L15 18.3333L13.4333 14.9ZM15 35L16.5667 31.5667L20 30L16.5667 28.4333L15 25L13.4333 28.4333L10 30L13.4333 31.5667L15 35ZM8.95 20.6167L6.66666 21.6667L8.95 22.7167L10 25L11.05 22.7167L13.3333 21.6667L11.05 20.6167L10 18.3333L8.95 20.6167ZM21.6667 20C21.6667 14.85 23.9667 10.1 27.4 6.66668H21.6667V3.33334H33.3333V15H30V8.80001C27 11.7 25 15.8 25 20C25 25.5333 28.5 30.6 33.3333 33.0333V36.6667C26.5167 34.0167 21.6667 27.25 21.6667 20Z" fill="black"/>
<path d="M41.1255 19.2544C41.1255 17.4604 41.4639 15.79 42.1406 14.2432C42.8174 12.6855 43.7949 11.3374 45.0732 10.1987C46.3623 9.04932 47.9307 8.14697 49.7783 7.4917C51.6367 6.83643 53.7368 6.50879 56.0786 6.50879C58.1304 6.50879 60.0103 6.71826 61.7183 7.13721C63.437 7.54541 65.0322 8.17383 66.5039 9.02246L64.1514 12.8896C63.7109 12.5996 63.2007 12.3418 62.6206 12.1162C62.0513 11.8906 61.439 11.7026 60.7837 11.5522C60.1392 11.3911 59.4678 11.2676 58.7695 11.1816C58.082 11.0957 57.3999 11.0527 56.7231 11.0527C55.0903 11.0527 53.6348 11.2568 52.3564 11.665C51.0781 12.0625 49.9985 12.6265 49.1177 13.3569C48.2476 14.0767 47.5815 14.9414 47.1196 15.9512C46.6685 16.9502 46.4429 18.0513 46.4429 19.2544C46.4429 20.5005 46.6792 21.6445 47.1519 22.6865C47.6245 23.7285 48.3066 24.6309 49.1982 25.3936C50.1006 26.1455 51.1963 26.7363 52.4854 27.166C53.7852 27.585 55.2515 27.7944 56.8843 27.7944C57.6255 27.7944 58.3613 27.7407 59.0918 27.6333C59.8223 27.5259 60.5259 27.3809 61.2026 27.1982C61.8901 27.0049 62.5508 26.7793 63.1846 26.5215C63.8184 26.2529 64.4092 25.9629 64.957 25.6514L67.3096 29.5186C65.9346 30.3994 64.3447 31.0923 62.54 31.5972C60.7354 32.0913 58.8179 32.3384 56.7876 32.3384C54.1987 32.3384 51.9268 32.0054 49.9717 31.3394C48.0166 30.6626 46.3838 29.7388 45.0732 28.5679C43.7627 27.3862 42.7744 26.0005 42.1084 24.4106C41.4531 22.8101 41.1255 21.0913 41.1255 19.2544ZM81.5376 6.81494H86.9517L99.1333 32H93.7676L91.7534 27.7622H77.042L75.0923 32H69.7104L81.5376 6.81494ZM89.7393 23.5566L84.293 12.1162L78.9917 23.5566H89.7393ZM103.049 6.81494H115.859C117.792 6.81494 119.468 7.01904 120.886 7.42725C122.304 7.82471 123.48 8.40479 124.415 9.16748C125.35 9.93018 126.042 10.8594 126.494 11.9551C126.956 13.0508 127.187 14.2915 127.187 15.6772C127.187 16.6118 127.074 17.5034 126.848 18.3521C126.623 19.1899 126.273 19.9634 125.801 20.6724C125.339 21.3813 124.753 22.0151 124.044 22.5737C123.335 23.1216 122.503 23.5781 121.547 23.9434L127.025 32H120.773L116.036 24.8457H115.891L108.157 24.8296V32H103.049V6.81494ZM115.988 20.4146C116.955 20.4146 117.798 20.3018 118.518 20.0762C119.248 19.8506 119.855 19.5337 120.338 19.1255C120.833 18.7173 121.198 18.2231 121.434 17.6431C121.681 17.0522 121.805 16.397 121.805 15.6772C121.805 14.27 121.321 13.1851 120.354 12.4224C119.388 11.6489 117.932 11.2622 115.988 11.2622H108.157V20.4146H115.988ZM133.245 6.81494H154.692V11.2944H138.353V16.3218H152.823V20.5273H138.353V27.5366H155.03V32H133.245V6.81494ZM160.702 6.81494H182.149V11.2944H165.81V16.3218H180.28V20.5273H165.81V27.5366H182.487V32H160.702V6.81494ZM188.159 6.81494H200.969C202.903 6.81494 204.579 7.01904 205.997 7.42725C207.415 7.82471 208.591 8.40479 209.525 9.16748C210.46 9.93018 211.153 10.8594 211.604 11.9551C212.066 13.0508 212.297 14.2915 212.297 15.6772C212.297 16.6118 212.184 17.5034 211.958 18.3521C211.733 19.1899 211.384 19.9634 210.911 20.6724C210.449 21.3813 209.864 22.0151 209.155 22.5737C208.446 23.1216 207.613 23.5781 206.657 23.9434L212.136 32H205.884L201.146 24.8457H201.001L193.267 24.8296V32H188.159V6.81494ZM201.098 20.4146C202.065 20.4146 202.908 20.3018 203.628 20.0762C204.358 19.8506 204.965 19.5337 205.449 19.1255C205.943 18.7173 206.308 18.2231 206.544 17.6431C206.792 17.0522 206.915 16.397 206.915 15.6772C206.915 14.27 206.432 13.1851 205.465 12.4224C204.498 11.6489 203.042 11.2622 201.098 11.2622H193.267V20.4146H201.098Z" fill="#2D81F7"/>
<path d="M218.355 6.81494H227.588C230.285 6.81494 232.626 7.10498 234.614 7.68506C236.601 8.26514 238.245 9.09766 239.544 10.1826C240.855 11.2568 241.827 12.5674 242.461 14.1143C243.105 15.6504 243.428 17.3799 243.428 19.3027C243.428 21.1289 243.111 22.8208 242.477 24.3784C241.843 25.9253 240.876 27.2681 239.577 28.4067C238.277 29.5347 236.633 30.4209 234.646 31.0654C232.659 31.6992 230.317 32.0161 227.621 32.0161L218.355 32V6.81494ZM228.845 27.585C230.371 27.585 231.708 27.3916 232.857 27.0049C234.007 26.6074 234.963 26.0488 235.726 25.3291C236.499 24.6094 237.079 23.7393 237.466 22.7188C237.853 21.6982 238.046 20.5596 238.046 19.3027C238.046 18.0674 237.853 16.9556 237.466 15.9673C237.079 14.9683 236.499 14.125 235.726 13.4375C234.963 12.7393 234.007 12.2021 232.857 11.8262C231.708 11.4502 230.371 11.2622 228.845 11.2622H223.463V27.585H228.845ZM248.552 6.81494H269.999V11.2944H253.66V16.3218H268.129V20.5273H253.66V27.5366H270.337V32H248.552V6.81494ZM276.009 6.81494H281.117V19.8506L294.41 6.81494H300.952L288.545 18.8354L300.952 32H294.152L284.871 22.3965L281.117 26.022V32H276.009V6.81494ZM303.45 6.81494H308.558V13.3892H324.22V6.81494H329.344V32H324.22V17.7559H308.558V32H303.45V6.81494ZM335.016 19.335C335.016 17.4336 335.365 15.6934 336.063 14.1143C336.761 12.5352 337.739 11.1816 338.996 10.0537C340.263 8.91504 341.778 8.03418 343.54 7.41113C345.312 6.78809 347.272 6.47656 349.421 6.47656C351.559 6.47656 353.514 6.78809 355.286 7.41113C357.059 8.03418 358.573 8.91504 359.83 10.0537C361.098 11.1816 362.081 12.5352 362.779 14.1143C363.477 15.6934 363.826 17.4336 363.826 19.335C363.826 21.2471 363.477 23.0034 362.779 24.604C362.081 26.1938 361.098 27.5635 359.83 28.7129C358.573 29.8623 357.059 30.7593 355.286 31.4038C353.514 32.0376 351.559 32.3545 349.421 32.3545C347.272 32.3545 345.312 32.0376 343.54 31.4038C341.778 30.7593 340.263 29.8623 338.996 28.7129C337.739 27.5635 336.761 26.1938 336.063 24.604C335.365 23.0034 335.016 21.2471 335.016 19.335ZM340.124 19.335C340.124 20.6348 340.354 21.8057 340.816 22.8477C341.289 23.8896 341.939 24.7812 342.766 25.5225C343.604 26.2529 344.587 26.8169 345.715 27.2144C346.854 27.6118 348.089 27.8105 349.421 27.8105C350.753 27.8105 351.983 27.6118 353.111 27.2144C354.25 26.8169 355.232 26.2529 356.06 25.5225C356.887 24.7812 357.537 23.8896 358.009 22.8477C358.482 21.8057 358.718 20.6348 358.718 19.335C358.718 18.0352 358.482 16.8696 358.009 15.8384C357.537 14.8071 356.887 13.937 356.06 13.228C355.232 12.5083 354.25 11.9604 353.111 11.5845C351.983 11.2085 350.753 11.0205 349.421 11.0205C348.089 11.0205 346.854 11.2085 345.715 11.5845C344.587 11.9604 343.604 12.5083 342.766 13.228C341.939 13.937 341.289 14.8071 340.816 15.8384C340.354 16.8696 340.124 18.0352 340.124 19.335Z" fill="black"/>
<rect x="369" y="2" width="84" height="26" rx="13" fill="black"/>
<path d="M388.895 7.21317L391.207 7.27231L391.089 11.8802C391.296 11.7448 391.539 11.6181 391.818 11.5002C392.097 11.3823 392.397 11.2806 392.717 11.195C393.037 11.1094 393.367 11.0449 393.706 11.0015C394.046 10.9529 394.385 10.9329 394.724 10.9416C395.505 10.9615 396.218 11.0944 396.863 11.3401C397.513 11.586 398.067 11.9232 398.525 12.3517C398.983 12.7802 399.335 13.2894 399.58 13.8792C399.831 14.4639 399.947 15.1077 399.929 15.8106C399.91 16.5448 399.755 17.2051 399.464 17.7916C399.173 18.3729 398.778 18.8681 398.278 19.2773C397.783 19.6815 397.196 19.9895 396.519 20.2014C395.847 20.4083 395.12 20.5017 394.339 20.4817C394.006 20.4732 393.676 20.4439 393.349 20.3939C393.027 20.344 392.716 20.2787 392.416 20.1981C392.121 20.1176 391.842 20.0245 391.579 19.9188C391.322 19.808 391.093 19.6901 390.893 19.5652L390.876 20.229L388.564 20.1699L388.895 7.21317ZM390.95 17.3315C391.179 17.525 391.423 17.6901 391.68 17.8269C391.937 17.9637 392.199 18.0773 392.468 18.1675C392.737 18.2577 393.008 18.3272 393.283 18.3759C393.558 18.4194 393.826 18.4445 394.086 18.4512C394.617 18.4647 395.09 18.4065 395.505 18.2764C395.926 18.1413 396.28 17.9524 396.567 17.7097C396.86 17.4671 397.086 17.1785 397.246 16.8439C397.405 16.5093 397.49 16.1442 397.5 15.7485C397.51 15.3788 397.443 15.0281 397.301 14.6962C397.163 14.3644 396.957 14.0726 396.682 13.8207C396.413 13.5637 396.082 13.3599 395.69 13.2092C395.303 13.0534 394.865 12.9693 394.375 12.9567C394.063 12.9488 393.75 12.972 393.436 13.0265C393.122 13.0758 392.818 13.1514 392.523 13.2532C392.234 13.3552 391.96 13.4811 391.701 13.6308C391.447 13.7806 391.224 13.9494 391.032 14.1373L390.95 17.3315ZM401.632 15.862C401.648 15.2372 401.79 14.6443 402.06 14.0833C402.33 13.5171 402.71 13.0215 403.2 12.5964C403.69 12.1712 404.285 11.8374 404.984 11.5948C405.688 11.3523 406.483 11.2424 407.368 11.265C408.248 11.2875 409.036 11.4405 409.732 11.724C410.434 12.0025 411.023 12.3771 411.501 12.8478C411.984 13.3186 412.348 13.8671 412.592 14.4934C412.842 15.1198 412.958 15.787 412.939 16.4951C412.937 16.5836 412.932 16.6799 412.924 16.7839C412.922 16.8828 412.914 16.9738 412.902 17.0568L404.186 16.8339C404.278 17.1124 404.43 17.3689 404.643 17.6036C404.861 17.8385 405.134 18.0434 405.463 18.2186C405.792 18.3937 406.174 18.5337 406.609 18.6386C407.044 18.7383 407.527 18.795 408.058 18.8086C408.589 18.8221 409.119 18.781 409.648 18.6851C410.177 18.584 410.683 18.4537 411.166 18.2941L411.902 20.0791C411.597 20.212 411.286 20.3291 410.971 20.4304C410.661 20.5267 410.336 20.607 409.996 20.6712C409.661 20.7304 409.308 20.7734 408.937 20.8004C408.572 20.8276 408.186 20.8359 407.78 20.8255C406.744 20.799 405.839 20.6508 405.064 20.3809C404.289 20.111 403.645 19.7533 403.13 19.3077C402.615 18.8621 402.232 18.3443 401.982 17.7544C401.731 17.1645 401.614 16.5337 401.632 15.862ZM410.519 15.1906C410.442 14.9334 410.318 14.6931 410.147 14.4699C409.98 14.2416 409.769 14.0435 409.513 13.8754C409.257 13.7021 408.958 13.5642 408.617 13.4617C408.276 13.3592 407.9 13.3027 407.488 13.2922C407.051 13.281 406.651 13.3203 406.29 13.41C405.928 13.4997 405.609 13.6244 405.334 13.7841C405.059 13.9438 404.828 14.1307 404.64 14.3447C404.458 14.5588 404.321 14.7872 404.232 15.0298L410.519 15.1906ZM416.902 13.408L414.677 13.351L414.721 11.6172L416.947 11.6741L417.02 8.8079L419.332 8.86703L419.259 11.7333L421.484 11.7902L421.44 13.524L419.214 13.4671L419.023 20.949L416.711 20.8899L416.902 13.408ZM422.94 18.142C422.951 17.6994 423.058 17.2984 423.26 16.9389C423.462 16.5793 423.759 16.2743 424.15 16.0238C424.543 15.7682 425.027 15.5774 425.603 15.4514C426.185 15.3204 426.858 15.2647 427.624 15.2843C428.191 15.2988 428.786 15.3557 429.409 15.455C430.037 15.5544 430.682 15.6986 431.344 15.8874C431.325 15.5952 431.244 15.3248 431.099 15.0762C430.954 14.8224 430.749 14.6036 430.483 14.4196C430.222 14.2306 429.903 14.0818 429.525 13.9731C429.153 13.8646 428.727 13.8042 428.248 13.792C427.988 13.7853 427.701 13.7936 427.388 13.8168C427.074 13.8401 426.75 13.8787 426.416 13.9326C426.081 13.9866 425.748 14.0562 425.418 14.1416C425.093 14.227 424.788 14.3313 424.503 14.4542L423.849 12.5384C424.201 12.4224 424.576 12.3174 424.974 12.2234C425.378 12.1295 425.789 12.0514 426.207 11.9892C426.626 11.9217 427.044 11.8725 427.462 11.8415C427.879 11.8105 428.283 11.8 428.674 11.81C430.397 11.8541 431.667 12.3268 432.482 13.2282C433.298 14.1295 433.683 15.4888 433.636 17.3059L433.534 21.3202L431.222 21.2611L431.244 20.3942C431.001 20.5286 430.735 20.6547 430.445 20.7723C430.161 20.8901 429.851 20.9915 429.515 21.0767C429.18 21.1619 428.818 21.2256 428.432 21.2679C428.05 21.3154 427.646 21.3337 427.219 21.3228C426.501 21.3044 425.87 21.2101 425.327 21.04C424.79 20.8699 424.342 20.6422 423.985 20.357C423.628 20.0717 423.36 19.7418 423.182 19.3674C423.009 18.9878 422.928 18.5794 422.94 18.142ZM425.378 18.1262C425.374 18.2772 425.41 18.424 425.484 18.5666C425.559 18.704 425.681 18.8295 425.85 18.9433C426.019 19.0518 426.235 19.1433 426.499 19.2178C426.768 19.2872 427.093 19.3267 427.473 19.3365C427.879 19.3468 428.273 19.3205 428.655 19.2573C429.037 19.1941 429.394 19.1068 429.725 18.9955C430.056 18.8841 430.356 18.7537 430.626 18.6043C430.895 18.4549 431.121 18.2992 431.302 18.1371L431.312 17.731C430.961 17.623 430.611 17.5307 430.264 17.4541C429.922 17.3776 429.593 17.3171 429.276 17.2725C428.965 17.2229 428.669 17.1866 428.388 17.1638C428.113 17.1412 427.871 17.1272 427.663 17.1218C427.23 17.1108 426.87 17.1302 426.583 17.1802C426.295 17.2301 426.061 17.3023 425.882 17.3967C425.702 17.4859 425.574 17.5946 425.498 17.7229C425.422 17.8512 425.382 17.9857 425.378 18.1262Z" fill="white"/>
</svg>
