<svg width="16" height="16" viewBox="0 0 20 18" fill="none" xmlns="http://www.w3.org/2000/svg">
<path d="M4.5 7C2.29 7 0.5 8.79 0.5 11C0.5 13.21 2.29 15 4.5 15C6.71 15 8.5 13.21 8.5 11C8.5 8.79 6.71 7 4.5 7ZM4.5 13C3.4 13 2.5 12.1 2.5 11C2.5 9.9 3.4 9 4.5 9C5.6 9 6.5 9.9 6.5 11C6.5 12.1 5.6 13 4.5 13ZM12.51 12C10.86 12 9.51 13.35 9.51 15C9.51 16.65 10.86 18 12.51 18C14.16 18 15.51 16.65 15.51 15C15.51 13.35 14.16 12 12.51 12ZM12.51 16C11.96 16 11.51 15.55 11.51 15C11.51 14.45 11.96 14 12.51 14C13.06 14 13.51 14.45 13.51 15C13.51 15.55 13.06 16 12.51 16ZM14 0C10.97 0 8.5 2.47 8.5 5.5C8.5 8.53 10.97 11 14 11C17.03 11 19.5 8.53 19.5 5.5C19.5 2.47 17.03 0 14 0ZM14 9C12.07 9 10.5 7.43 10.5 5.5C10.5 3.57 12.07 2 14 2C15.93 2 17.5 3.57 17.5 5.5C17.5 7.43 15.93 9 14 9Z" fill="black"/>
</svg>
