<svg width="512" height="512" viewBox="0 0 512 512" fill="none" xmlns="http://www.w3.org/2000/svg">
<path d="M173.917 192.25L131 172.667L173.917 153.083L193.5 110.167L213.083 153.083L256 172.667L213.083 192.25L193.5 235.167L173.917 192.25ZM193.5 443.5L213.083 400.583L256 381L213.083 361.417L193.5 318.5L173.917 361.417L131 381L173.917 400.583L193.5 443.5ZM117.875 263.708L89.3333 276.833L117.875 289.958L131 318.5L144.125 289.958L172.667 276.833L144.125 263.708L131 235.167L117.875 263.708ZM276.833 256C276.833 191.625 305.583 132.25 348.5 89.3333H276.833V47.6667H422.667V193.5H381V116C343.5 152.25 318.5 203.5 318.5 256C318.5 325.167 362.25 388.5 422.667 418.917V464.333C337.458 431.208 276.833 346.625 276.833 256Z" fill="#2D81F7"/>
</svg>
